<mxfile host="65bd71144e">
    <diagram id="stcWzli57c0XViP1N1hx" name="Page-1">
        <mxGraphModel dx="321" dy="495" grid="1" gridSize="10" guides="1" tooltips="1" connect="1" arrows="1" fold="1" page="1" pageScale="1" pageWidth="850" pageHeight="1100" math="1" shadow="0">
            <root>
                <mxCell id="0"/>
                <mxCell id="1" parent="0"/>
                <mxCell id="2" value="&lt;font color=&quot;#66b2ff&quot;&gt;\(f(x)=x^2 /2\)&lt;/font&gt;" style="text;html=1;strokeColor=none;fillColor=none;align=center;verticalAlign=middle;whiteSpace=wrap;rounded=0;fontSize=10;" vertex="1" parent="1">
                    <mxGeometry x="25" y="60.5" width="70" height="20" as="geometry"/>
                </mxCell>
                <mxCell id="3" value="" style="endArrow=none;html=1;endSize=11;startSize=6;startArrow=classic;startFill=1;strokeColor=#B3B3B3;" edge="1" parent="1">
                    <mxGeometry width="50" height="50" relative="1" as="geometry">
                        <mxPoint x="220" y="200.5" as="sourcePoint"/>
                        <mxPoint x="20" y="200.5" as="targetPoint"/>
                    </mxGeometry>
                </mxCell>
                <mxCell id="4" value="&lt;font color=&quot;#b3b3b3&quot;&gt;\(x&lt;br&gt;\)&lt;/font&gt;" style="text;html=1;align=center;verticalAlign=middle;resizable=0;points=[];autosize=1;strokeColor=none;fillColor=none;" vertex="1" parent="1">
                    <mxGeometry x="200" y="190.5" width="40" height="40" as="geometry"/>
                </mxCell>
                <mxCell id="5" value="" style="endArrow=none;html=1;endSize=11;startSize=6;startArrow=classic;startFill=1;strokeColor=#B3B3B3;" edge="1" parent="1">
                    <mxGeometry width="50" height="50" relative="1" as="geometry">
                        <mxPoint x="120" y="90.5" as="sourcePoint"/>
                        <mxPoint x="120" y="210.5" as="targetPoint"/>
                    </mxGeometry>
                </mxCell>
                <mxCell id="6" value="" style="endArrow=none;html=1;startSize=6;endSize=11;curved=1;strokeColor=#6c8ebf;fillColor=#dae8fc;opacity=80;" edge="1" parent="1">
                    <mxGeometry width="50" height="50" relative="1" as="geometry">
                        <mxPoint x="20" y="80.5" as="sourcePoint"/>
                        <mxPoint x="220" y="80.5" as="targetPoint"/>
                        <Array as="points">
                            <mxPoint x="120" y="320.5"/>
                        </Array>
                    </mxGeometry>
                </mxCell>
                <mxCell id="9" value="" style="endArrow=none;html=1;fontSize=6;startSize=6;endSize=11;curved=1;strokeColor=#d6b656;fillColor=#fff2cc;" edge="1" parent="1">
                    <mxGeometry width="50" height="50" relative="1" as="geometry">
                        <mxPoint x="90" y="230.5" as="sourcePoint"/>
                        <mxPoint x="230" y="90.5" as="targetPoint"/>
                    </mxGeometry>
                </mxCell>
                <mxCell id="10" value="&lt;font color=&quot;#d6b656&quot;&gt;\(g(x)=1\cdot x\)&lt;/font&gt;" style="text;html=1;strokeColor=none;fillColor=none;align=center;verticalAlign=middle;whiteSpace=wrap;rounded=0;fontSize=10;" vertex="1" parent="1">
                    <mxGeometry x="30" y="210.5" width="60" height="20" as="geometry"/>
                </mxCell>
                <mxCell id="11" value="" style="endArrow=none;html=1;fontSize=6;startSize=6;endSize=11;curved=1;fillColor=#fff2cc;strokeColor=#d6b656;dashed=1;dashPattern=8 8;" edge="1" parent="1">
                    <mxGeometry width="50" height="50" relative="1" as="geometry">
                        <mxPoint x="130" y="210.5" as="sourcePoint"/>
                        <mxPoint x="192" y="149.5" as="targetPoint"/>
                    </mxGeometry>
                </mxCell>
                <mxCell id="12" value="" style="endArrow=classicThin;html=1;fontSize=6;startSize=2;endSize=1;fillColor=#d5e8d4;strokeColor=#82b366;rounded=0;startArrow=classicThin;startFill=1;endFill=1;dashed=1;dashPattern=1 2;" edge="1" parent="1">
                    <mxGeometry width="50" height="50" relative="1" as="geometry">
                        <mxPoint x="160" y="181.5" as="sourcePoint"/>
                        <mxPoint x="160" y="160.5" as="targetPoint"/>
                    </mxGeometry>
                </mxCell>
                <mxCell id="13" value="&lt;font color=&quot;#82b366&quot;&gt;\(f^*(1)=\frac{1}{2}\)&lt;/font&gt;" style="text;html=1;strokeColor=none;fillColor=none;align=center;verticalAlign=middle;whiteSpace=wrap;rounded=0;fontSize=10;" vertex="1" parent="1">
                    <mxGeometry x="140" y="110.5" width="30" height="10" as="geometry"/>
                </mxCell>
                <mxCell id="14" value="" style="endArrow=open;html=1;strokeColor=#82b366;fontSize=10;fontColor=#82B366;startSize=6;endSize=2;opacity=80;entryX=0.224;entryY=1.117;entryDx=0;entryDy=0;curved=1;endFill=0;fillColor=#d5e8d4;dashed=1;dashPattern=1 2;entryPerimeter=0;" edge="1" parent="1" target="13">
                    <mxGeometry width="50" height="50" relative="1" as="geometry">
                        <mxPoint x="160" y="170.5" as="sourcePoint"/>
                        <mxPoint x="140.5" y="124.5" as="targetPoint"/>
                        <Array as="points">
                            <mxPoint x="140" y="160.5"/>
                            <mxPoint x="133" y="144.5"/>
                        </Array>
                    </mxGeometry>
                </mxCell>
                <mxCell id="15" value="\(\begin{align}f'(x)=y \\ \Rightarrow x=1\end{align}\)" style="text;html=1;strokeColor=none;fillColor=none;align=center;verticalAlign=middle;whiteSpace=wrap;rounded=0;fontSize=10;fontColor=#82B366;" vertex="1" parent="1">
                    <mxGeometry x="150" y="220.5" width="50" height="30" as="geometry"/>
                </mxCell>
                <mxCell id="16" value="" style="ellipse;whiteSpace=wrap;html=1;aspect=fixed;fontSize=10;fillColor=#d5e8d4;strokeColor=#82b366;" vertex="1" parent="1">
                    <mxGeometry x="159" y="199.5" width="3" height="3" as="geometry"/>
                </mxCell>
                <mxCell id="18" value="" style="endArrow=none;dashed=1;html=1;dashPattern=1 2;strokeColor=#82b366;fontSize=10;fontColor=#82B366;startSize=2;endSize=1;opacity=80;entryX=0.5;entryY=1;entryDx=0;entryDy=0;exitX=0.5;exitY=0;exitDx=0;exitDy=0;fillColor=#d5e8d4;curved=1;" edge="1" parent="1" source="15" target="16">
                    <mxGeometry width="50" height="50" relative="1" as="geometry">
                        <mxPoint x="110" y="270.5" as="sourcePoint"/>
                        <mxPoint x="160" y="220.5" as="targetPoint"/>
                        <Array as="points">
                            <mxPoint x="160" y="210.5"/>
                        </Array>
                    </mxGeometry>
                </mxCell>
                <mxCell id="19" value="&lt;font color=&quot;#66b2ff&quot;&gt;\(f(x)=x^2 /2\)&lt;/font&gt;" style="text;html=1;strokeColor=none;fillColor=none;align=center;verticalAlign=middle;whiteSpace=wrap;rounded=0;fontSize=10;" vertex="1" parent="1">
                    <mxGeometry x="340" y="60.5" width="70" height="20" as="geometry"/>
                </mxCell>
                <mxCell id="20" value="" style="endArrow=none;html=1;endSize=11;startSize=6;startArrow=none;startFill=1;strokeColor=#B3B3B3;" edge="1" parent="1" source="31">
                    <mxGeometry width="50" height="50" relative="1" as="geometry">
                        <mxPoint x="540" y="200" as="sourcePoint"/>
                        <mxPoint x="340" y="200" as="targetPoint"/>
                    </mxGeometry>
                </mxCell>
                <mxCell id="21" value="&lt;font color=&quot;#b3b3b3&quot;&gt;\(x&lt;br&gt;\)&lt;/font&gt;" style="text;html=1;align=center;verticalAlign=middle;resizable=0;points=[];autosize=1;strokeColor=none;fillColor=none;" vertex="1" parent="1">
                    <mxGeometry x="520" y="190" width="40" height="40" as="geometry"/>
                </mxCell>
                <mxCell id="22" value="" style="endArrow=none;html=1;endSize=11;startSize=6;startArrow=classic;startFill=1;strokeColor=#B3B3B3;" edge="1" parent="1">
                    <mxGeometry width="50" height="50" relative="1" as="geometry">
                        <mxPoint x="440" y="90" as="sourcePoint"/>
                        <mxPoint x="440" y="210" as="targetPoint"/>
                    </mxGeometry>
                </mxCell>
                <mxCell id="23" value="" style="endArrow=none;html=1;startSize=6;endSize=11;curved=1;strokeColor=#6c8ebf;fillColor=#dae8fc;opacity=80;" edge="1" parent="1">
                    <mxGeometry width="50" height="50" relative="1" as="geometry">
                        <mxPoint x="340" y="80" as="sourcePoint"/>
                        <mxPoint x="540" y="80" as="targetPoint"/>
                        <Array as="points">
                            <mxPoint x="440" y="320"/>
                        </Array>
                    </mxGeometry>
                </mxCell>
                <mxCell id="24" value="" style="endArrow=none;html=1;fontSize=6;startSize=6;endSize=11;curved=1;strokeColor=#d6b656;fillColor=#fff2cc;" edge="1" parent="1">
                    <mxGeometry width="50" height="50" relative="1" as="geometry">
                        <mxPoint x="430" y="220" as="sourcePoint"/>
                        <mxPoint x="530" y="20" as="targetPoint"/>
                    </mxGeometry>
                </mxCell>
                <mxCell id="25" value="&lt;font color=&quot;#d6b656&quot;&gt;\(g(x)=2\cdot x\)&lt;/font&gt;" style="text;html=1;strokeColor=none;fillColor=none;align=center;verticalAlign=middle;whiteSpace=wrap;rounded=0;fontSize=10;" vertex="1" parent="1">
                    <mxGeometry x="365" y="210.5" width="60" height="20" as="geometry"/>
                </mxCell>
                <mxCell id="27" value="" style="endArrow=classicThin;html=1;fontSize=6;startSize=2;endSize=1;fillColor=#d5e8d4;strokeColor=#82b366;rounded=0;startArrow=classicThin;startFill=1;endFill=1;dashed=1;dashPattern=1 2;" edge="1" parent="1">
                    <mxGeometry width="50" height="50" relative="1" as="geometry">
                        <mxPoint x="520" y="120" as="sourcePoint"/>
                        <mxPoint x="520" y="40" as="targetPoint"/>
                    </mxGeometry>
                </mxCell>
                <mxCell id="28" value="&lt;font color=&quot;#82b366&quot;&gt;\(f^*(2)=2\)&lt;/font&gt;" style="text;html=1;strokeColor=none;fillColor=none;align=center;verticalAlign=middle;whiteSpace=wrap;rounded=0;fontSize=10;" vertex="1" parent="1">
                    <mxGeometry x="530" y="30" width="70" height="20" as="geometry"/>
                </mxCell>
                <mxCell id="29" value="" style="endArrow=open;html=1;strokeColor=#82b366;fontSize=10;fontColor=#82B366;startSize=6;endSize=2;opacity=80;entryX=0.25;entryY=1;entryDx=0;entryDy=0;endFill=0;fillColor=#d5e8d4;dashed=1;dashPattern=1 2;edgeStyle=orthogonalEdgeStyle;curved=1;" edge="1" parent="1" target="28">
                    <mxGeometry width="50" height="50" relative="1" as="geometry">
                        <mxPoint x="520" y="70" as="sourcePoint"/>
                        <mxPoint x="447.5" y="64" as="targetPoint"/>
                    </mxGeometry>
                </mxCell>
                <mxCell id="30" value="\(\begin{align}f'(x)=y \\ \Rightarrow x=2\end{align}\)" style="text;html=1;strokeColor=none;fillColor=none;align=center;verticalAlign=middle;whiteSpace=wrap;rounded=0;fontSize=10;fontColor=#82B366;" vertex="1" parent="1">
                    <mxGeometry x="490" y="220.5" width="50" height="30" as="geometry"/>
                </mxCell>
                <mxCell id="32" value="" style="endArrow=none;dashed=1;html=1;dashPattern=1 2;strokeColor=#82b366;fontSize=10;fontColor=#82B366;startSize=2;endSize=1;opacity=80;entryX=0.5;entryY=1;entryDx=0;entryDy=0;exitX=0.5;exitY=0;exitDx=0;exitDy=0;fillColor=#d5e8d4;curved=1;" edge="1" parent="1" source="30" target="31">
                    <mxGeometry width="50" height="50" relative="1" as="geometry">
                        <mxPoint x="430" y="270" as="sourcePoint"/>
                        <mxPoint x="480" y="220" as="targetPoint"/>
                        <Array as="points">
                            <mxPoint x="530" y="210"/>
                        </Array>
                    </mxGeometry>
                </mxCell>
                <mxCell id="34" value="" style="endArrow=none;html=1;fontSize=6;startSize=6;endSize=11;curved=1;strokeColor=#d6b656;fillColor=#fff2cc;dashed=1;dashPattern=12 12;" edge="1" parent="1">
                    <mxGeometry width="50" height="50" relative="1" as="geometry">
                        <mxPoint x="483" y="196" as="sourcePoint"/>
                        <mxPoint x="543" y="76" as="targetPoint"/>
                    </mxGeometry>
                </mxCell>
                <mxCell id="36" value="" style="endArrow=none;html=1;endSize=11;startSize=6;startArrow=classic;startFill=1;strokeColor=#B3B3B3;" edge="1" parent="1" target="31">
                    <mxGeometry width="50" height="50" relative="1" as="geometry">
                        <mxPoint x="540" y="200" as="sourcePoint"/>
                        <mxPoint x="340" y="200" as="targetPoint"/>
                    </mxGeometry>
                </mxCell>
                <mxCell id="31" value="" style="ellipse;whiteSpace=wrap;html=1;aspect=fixed;fontSize=10;fillColor=#d5e8d4;strokeColor=#82b366;" vertex="1" parent="1">
                    <mxGeometry x="518" y="198.5" width="3" height="3" as="geometry"/>
                </mxCell>
                <mxCell id="37" value="&lt;font style=&quot;font-size: 14px;&quot; color=&quot;#000000&quot;&gt;\(\begin{align*}&lt;br&gt;f^*(y)&amp;amp;=\text{sup}_{x\in\text{dom}f}{yx-f(x)}\\&lt;br&gt;&amp;amp;=yx^*-(x^*)^2/2\\&lt;br&gt;&amp;amp;=y^2-y^2/2\\&lt;br&gt;&amp;amp;=y^2/2&lt;br&gt;\end{align*}\)&lt;/font&gt;" style="text;html=1;strokeColor=none;fillColor=none;align=center;verticalAlign=middle;whiteSpace=wrap;rounded=0;fontSize=10;fontColor=#B3B3B3;" vertex="1" parent="1">
                    <mxGeometry x="205" y="300" width="160" height="80" as="geometry"/>
                </mxCell>
            </root>
        </mxGraphModel>
    </diagram>
</mxfile>